<svg width="394" height="68" viewBox="0 0 394 68" fill="none" xmlns="http://www.w3.org/2000/svg">
<path d="M31.3438 40.4219C31.3125 40.4219 30.0625 43.2656 27.5938 48.9531C25.125 54.6406 23.4219 58.2656 22.4844 59.8281C20.6406 62.8906 18.7656 64.4219 16.8594 64.4219C15.7656 64.4219 14.5781 63.9531 13.2969 63.0156C12.0469 62.0781 11.0625 60.7188 10.3438 58.9375C9.65625 57.125 8.54688 53.5469 7.01562 48.2031C5.51562 42.8594 4.125 38.2812 2.84375 34.4688C1.5625 30.625 0.921875 27.9219 0.921875 26.3594C0.921875 23.5156 1.96875 22.0938 4.0625 22.0938C6.9375 22.0938 8.98438 23.3281 10.2031 25.7969C10.2344 25.8594 11.4219 30.3281 13.7656 39.2031C16.1094 48.0469 18.0156 52.4688 19.4844 52.4688C20.6406 52.4688 22.2344 48.5 24.2656 40.5625C24.8594 38.2812 25.375 35.3438 25.8125 31.75C26.25 28.125 26.5469 26.125 26.7031 25.75C27.6406 23.4688 29.5312 22.3281 32.375 22.3281C35.2188 22.3281 37.2188 23.75 38.375 26.5938C38.8438 27.75 39.2656 29.6406 39.6406 32.2656C40.0156 34.8906 40.6562 37.9062 41.5625 41.3125C43.5 48.6562 45.0156 52.3281 46.1094 52.3281C47.3594 52.3281 49.1406 48.3438 51.4531 40.375C52.1719 37.9375 52.9062 34.9844 53.6562 31.5156C54.4375 28.0469 55.0156 25.8906 55.3906 25.0469C56.2969 23.0469 57.7656 22.0469 59.7969 22.0469C61.8594 22.0469 62.8906 23.375 62.8906 26.0312C62.8906 27.0312 62.3125 29.375 61.1562 33.0625C60.0312 36.7188 58.5469 41.7031 56.7031 48.0156C54.8594 54.3281 53.6094 58.1875 52.9531 59.5938C52.2969 61 51.3594 62.1875 50.1406 63.1562C48.9219 64.0938 47.7969 64.5625 46.7656 64.5625C44.9219 64.5625 43.3438 63.5938 42.0312 61.6562C40.75 59.7188 38.7344 55.7031 35.9844 49.6094C33.2656 43.4844 31.7188 40.4219 31.3438 40.4219ZM101.146 39.3906C103.271 39.3906 104.771 39.0625 105.646 38.4062C106.521 37.75 106.959 37 106.959 36.1562V34.1875C106.959 31.9375 106.131 30.0781 104.474 28.6094C102.818 27.1406 101.006 26.4062 99.0369 26.4062H97.8181C94.9744 26.4062 92.49 27.6094 90.365 30.0156C88.24 32.3906 87.1775 35 87.1775 37.8438V38.6406C87.1775 39.7344 88.1775 40.2812 90.1775 40.2812H91.2556L91.5369 40.2344L95.0525 40L97.3962 39.8125L98.99 39.625C99.2712 39.5938 99.6462 39.5469 100.115 39.4844C100.615 39.4219 100.959 39.3906 101.146 39.3906ZM99.2244 67.6094H97.1619C90.9119 67.6094 85.8962 65.5 82.115 61.2812C80.4275 59.4062 79.115 57.0312 78.1775 54.1562C77.24 51.25 76.7712 48.375 76.7712 45.5312V43.4219C76.7712 40.5781 77.365 37.5938 78.5525 34.4688C80.8337 28.375 84.7087 24.2344 90.1775 22.0469C92.99 20.8906 95.9744 20.3125 99.1306 20.3125H100.162C104.537 20.3125 108.146 21.6406 110.99 24.2969C112.615 25.8281 113.834 27.6719 114.646 29.8281C115.49 31.9531 115.912 33.875 115.912 35.5938C115.912 39.375 114.724 41.8438 112.349 43C110.724 43.7812 107.006 44.5156 101.193 45.2031C95.4119 45.8906 92.24 46.3125 91.6775 46.4688C88.9587 47.1562 87.5994 48.375 87.5994 50.125C87.5994 53.1562 88.99 55.6875 91.7712 57.7188C93.8025 59.2188 96.7087 59.9688 100.49 59.9688C101.927 59.9688 104.256 59.5156 107.474 58.6094C110.693 57.7031 112.459 57.25 112.771 57.25C114.396 57.25 115.209 57.9844 115.209 59.4531C115.209 61.2969 113.459 63.125 109.959 64.9375C106.49 66.7188 102.912 67.6094 99.2244 67.6094ZM174.699 14.4531L173.621 7.04688C173.621 5.23437 174.433 3.875 176.058 2.96875C177.714 2.0625 179.667 1.60938 181.917 1.60938C184.199 1.60938 185.808 2 186.746 2.78125C187.714 3.5625 188.199 4.34375 188.199 5.125V6.67188L187.824 8.125L187.214 9.48438L186.652 10.9375C186.121 12.6875 185.855 18.2812 185.855 27.7188L185.761 35.5C185.761 36.375 185.73 37.6719 185.667 39.3906L185.527 43.3281C185.433 47.2656 185.386 50.0938 185.386 51.8125C185.386 53.5 185.496 54.8281 185.714 55.7969C185.964 56.7344 186.371 57.8906 186.933 59.2656C187.527 60.6406 187.824 61.6406 187.824 62.2656C187.824 63.9531 187.277 65.0938 186.183 65.6875C185.121 66.2812 183.464 66.5781 181.214 66.5781C178.996 66.5781 177.183 66.0625 175.777 65.0312C174.371 63.9688 173.667 62.9375 173.667 61.9375C173.667 60.9375 173.792 59.7969 174.042 58.5156C174.324 57.2031 174.542 55.9531 174.699 54.7656C174.886 53.5781 174.98 50.7344 174.98 46.2344C174.98 41.7344 174.136 38.9375 172.449 37.8438C171.261 37.0625 168.48 36.6719 164.105 36.6719C155.511 36.6719 150.464 37.5156 148.964 39.2031C147.777 40.5469 147.183 44.4844 147.183 51.0156C147.183 53.4531 147.246 55.1875 147.371 56.2188L147.605 57.7188L147.886 59.0781C148.074 60.1406 148.167 61.1562 148.167 62.125C148.167 63.0625 147.558 63.9531 146.339 64.7969C145.121 65.6406 143.308 66.0625 140.902 66.0625C136.371 66.0625 134.105 64.6719 134.105 61.8906C134.105 61.8281 134.683 59.8906 135.839 56.0781C136.496 53.8906 136.824 46.4688 136.824 33.8125L136.871 31.8906C136.902 30.1094 136.933 28.7031 136.964 27.6719C136.996 26.6406 137.011 24.3125 137.011 20.6875C137.011 17.0312 136.886 14.6094 136.636 13.4219C136.417 12.2344 135.964 10.9062 135.277 9.4375C134.621 7.96875 134.292 6.8125 134.292 5.96875C134.292 3.3125 136.464 1.98438 140.808 1.98438C143.058 1.98438 144.839 2.42187 146.152 3.29688C147.496 4.14062 148.167 5.15625 148.167 6.34375C148.167 6.625 148.011 7.71875 147.699 9.625C147.386 11.5312 147.23 13.8906 147.23 16.7031C147.23 22.5469 148.042 26.0781 149.667 27.2969C151.324 28.4844 156.527 29.0781 165.277 29.0781C169.871 29.0781 172.589 28.2188 173.433 26.5C174.277 24.75 174.699 20.7344 174.699 14.4531ZM233.017 40.2344C237.767 40.2344 240.142 39.7812 240.142 38.875V38.5938C240.142 38.2812 239.939 37.375 239.533 35.875C239.158 34.3438 238.939 33.4531 238.876 33.2031C238.814 32.9219 238.736 32.6562 238.642 32.4062C238.548 32.125 238.079 30.2188 237.236 26.6875C236.423 23.125 235.361 19.8125 234.048 16.75C232.736 13.6875 231.986 12.1562 231.798 12.1562C231.611 12.1562 231.064 13.2812 230.158 15.5312C224.908 28.6562 222.283 36.4219 222.283 38.8281V39.1094C222.283 39.8594 223.892 40.2344 227.111 40.2344H230.251L230.673 40.1875L232.22 40.2344H233.017ZM258.986 58.9375V59.875C258.986 61.6562 258.236 63.2656 256.736 64.7031C255.923 65.4844 254.423 65.875 252.236 65.875C250.079 65.875 248.548 65.2969 247.642 64.1406C247.548 64.0156 246.939 61.8906 245.814 57.7656C244.72 53.6406 243.47 50.7969 242.064 49.2344C240.689 47.6406 237.986 46.8438 233.954 46.8438C226.267 46.8438 221.689 47.5156 220.22 48.8594C218.783 50.1719 217.392 52.9688 216.048 57.25C215.548 58.8125 215.204 60.3125 215.017 61.75C214.829 63.1875 214.595 64.1094 214.314 64.5156C213.751 65.3594 212.642 65.7812 210.986 65.7812C209.361 65.7812 208.064 65.1094 207.095 63.7656C206.126 62.3906 205.642 60.875 205.642 59.2188C205.642 57.5312 206.204 55.8594 207.329 54.2031C208.486 52.5156 209.314 51.0156 209.814 49.7031C210.345 48.3594 212.626 41.75 216.658 29.875C220.72 18 223.439 10.5938 224.814 7.65625C226.22 4.71875 227.439 2.85938 228.47 2.07812C229.533 1.26563 230.829 0.859375 232.361 0.859375C233.892 0.859375 235.283 1.40625 236.533 2.5C237.783 3.59375 239.126 5.6875 240.564 8.78125C240.595 8.875 245.47 22.625 255.189 50.0312C255.72 51.5312 256.486 53.0938 257.486 54.7188C258.486 56.3438 258.986 57.75 258.986 58.9375ZM294.71 11.1719C288.46 14.8281 285.335 22.6562 285.335 34.6562C285.335 46.6875 288.96 54.4219 296.21 57.8594C298.46 58.9219 301.444 59.4531 305.163 59.4531C308.882 59.4531 313.413 57.9062 318.757 54.8125C320.194 53.9688 321.397 53.5469 322.366 53.5469C323.647 53.5469 324.288 54.3906 324.288 56.0781C324.288 56.9844 323.741 58.2031 322.647 59.7344C321.554 61.2344 320.069 62.5312 318.194 63.625C313.788 66.1875 308.726 67.4688 303.007 67.4688H301.507C297.476 67.4688 293.679 66.7031 290.116 65.1719C283.21 62.2031 278.507 56.5938 276.007 48.3438C274.882 44.5938 274.319 40.6406 274.319 36.4844V34.9375C274.319 30.4375 274.976 26 276.288 21.625C278.851 13.125 283.835 7.10938 291.241 3.57812C295.179 1.73438 299.772 0.8125 305.022 0.8125C313.491 0.8125 318.929 2.82812 321.335 6.85938C322.335 8.54688 322.835 10.0312 322.835 11.3125C322.835 14.0312 321.882 15.3906 319.976 15.3906C319.382 15.3906 318.038 14.6719 315.944 13.2344C313.851 11.7969 311.741 10.7344 309.616 10.0469C307.522 9.32812 305.147 8.96875 302.491 8.96875C299.835 8.96875 297.241 9.70312 294.71 11.1719ZM353.966 64.2344C352.403 65.3594 350.153 65.9219 347.216 65.9219C344.278 65.9219 342.809 64.6875 342.809 62.2188C342.809 61.6875 343.028 60.7656 343.466 59.4531C343.903 58.1094 344.294 56.6562 344.638 55.0938C345.013 53.5 345.2 46.75 345.2 34.8438C345.2 22.9375 345.044 15.9688 344.731 13.9375C344.419 11.875 344.044 10.1406 343.606 8.73438C343.169 7.32812 342.95 6.20312 342.95 5.35938C342.95 2.98437 345.013 1.79688 349.138 1.79688C351.106 1.79688 352.856 2.26562 354.388 3.20312C355.95 4.14062 356.731 5.45312 356.731 7.14062C356.731 7.98438 356.622 9.0625 356.403 10.375L356.028 12.625C355.934 13.6562 355.888 16 355.888 19.6562C355.888 23.2812 356.091 25.5469 356.497 26.4531C356.903 27.3594 357.653 27.8125 358.747 27.8125C359.841 27.8125 363.497 24.0625 369.716 16.5625C372.028 13.7812 373.497 11.9062 374.122 10.9375C374.747 9.9375 375.481 8.67188 376.325 7.14062C377.2 5.60937 377.856 4.60938 378.294 4.14062C379.606 2.70312 381.747 1.98438 384.716 1.98438C387.684 1.98438 389.169 2.875 389.169 4.65625C389.169 4.9375 386.044 8.79688 379.794 16.2344C373.544 23.6406 370.419 28.3438 370.419 30.3438C370.419 31.4062 373.044 35.75 378.294 43.375C383.544 51 387.309 56.2969 389.591 59.2656C391.872 62.2031 393.013 63.9688 393.013 64.5625C393.013 65.8125 391.7 66.4375 389.075 66.4375H387.481C384.7 66.4375 382.403 65.5156 380.591 63.6719C380.341 63.4219 378.419 60.4688 374.825 54.8125C371.231 49.125 368.809 45.5 367.559 43.9375C364.903 40.5938 362.622 38.9219 360.716 38.9219C359.216 38.9219 357.997 40.3125 357.059 43.0938C356.153 45.8438 355.7 49.3281 355.7 53.5469L356.356 59.2188C356.356 61.4062 355.559 63.0781 353.966 64.2344Z" fill="url(#paint0_linear_2_16)"/>
<defs>
<linearGradient id="paint0_linear_2_16" x1="398.5" y1="37" x2="-15.8968" y2="11.1743" gradientUnits="userSpaceOnUse">
<stop stop-color="#6428B0"/>
<stop offset="1" stop-color="#EF500C"/>
</linearGradient>
</defs>
</svg>
